<svg version="1.1" viewBox="0.0 0.0 960.0 720.0" fill="none" stroke="none" stroke-linecap="square" stroke-miterlimit="10" xmlns:xlink="http://www.w3.org/1999/xlink" xmlns="http://www.w3.org/2000/svg"><clipPath id="p.0"><path d="m0 0l960.0 0l0 720.0l-960.0 0l0 -720.0z" clip-rule="nonzero"/></clipPath><g clip-path="url(#p.0)"><path fill="#000000" fill-opacity="0.0" d="m0 0l960.0 0l0 720.0l-960.0 0z" fill-rule="evenodd"/><path fill="#cfe2f3" d="m553.8504 324.85828l0 0c0 71.179504 -58.654236 128.88187 -131.00787 128.88187c-72.35367 0 -131.00787 -57.702362 -131.00787 -128.88187c0 -71.179504 58.654205 -128.8819 131.00787 -128.8819l0 128.8819z" fill-rule="evenodd"/><path stroke="#000000" stroke-width="1.0" stroke-linejoin="round" stroke-linecap="butt" d="m553.8504 324.85828l0 0c0 71.179504 -58.654236 128.88187 -131.00787 128.88187c-72.35367 0 -131.00787 -57.702362 -131.00787 -128.88187c0 -71.179504 58.654205 -128.8819 131.00787 -128.8819l0 128.8819z" fill-rule="evenodd"/></g></svg>